:SAMPLES-PER-SECOND 24
:FULLY-SPECIFIED
:DEGREES
370
root  -1.99307 38.1903 32.6115 174.842 72.9565 178.821
RightUpLeg  1.9703 -18.1469 -19.6728
RightLeg  30.4928 7.47508 4.52767
RightFoot  -12.5981 0.095824 17.8849
RightToes  -1.74623e-010 0 -2.59999e-017
Spine  6.56031 3.58084 5.83453
Spine1  12.8255 5.91396 -7.02056
HEad  -25.9671 49.3946 -28.2389
LeftShoulder1  1.85793 -3.1842 -21.4117
LeftArm  17.9807 10.2838 -44.8445
LeftForeArm  6.29992 -31.2567 -6.50511
LeftHand  -0.569916 1.4238 16.6302
RightShoulder  2.46848 4.62179 24.2731
RightArm  4.79474 -2.25204 41.2726
RightForeArm  138.266 62.2447 158.195
RightHand  -0.0367165 -4.68101 -1.37302
LeftUpLeg  -11.3121 3.76809 13.4729
LeftLeg  33.3579 2.29278 1.99985
LeftFoot  -4.98213 0.759187 -13.044
LeftToes  -6.27559e-011 -2.10356e-011 8.24929e-012
371
root  -2.28167 36.9718 32.9069 176.938 74.1242 -178.697
RightUpLeg  -0.834628 -20.1471 -19.6231
RightLeg  37.1563 9.46387 7.39012
RightFoot  -19.7518 1.02016 15.6388
RightToes  -1.74623e-010 0 -2.59999e-017
Spine  6.8088 3.2239 7.49161
Spine1  14.5578 5.91824 -7.85632
HEad  -30.9826 49.4919 -32.9836
LeftShoulder1  1.90079 -2.94848 -23.1944
LeftArm  16.0233 7.62937 -43.6211
LeftForeArm  7.33512 -31.7425 -6.56779
LeftHand  -0.572966 1.78876 18.3901
RightShoulder  2.44573 4.44361 24.6939
RightArm  1.48131 7.53762 39.0541
RightForeArm  129.712 67.8226 151.137
RightHand  0.0671676 -6.97486 -7.026
LeftUpLeg  -13.0401 4.79704 14.9149
LeftLeg  38.0457 2.68865 2.63724
LeftFoot  -12.3188 -0.0503742 -14.244
LeftToes  -6.27559e-011 -2.10356e-011 8.24929e-012
372
root  -2.33232 36.6396 32.9477 177.703 75.5678 -177.556
RightUpLeg  -1.85585 -20.3266 -19.5911
RightLeg  39.1634 10.0614 8.42447
RightFoot  -20.8562 1.08703 14.6966
RightToes  -1.74623e-010 0 -2.59999e-017
Spine  6.15679 3.3105 7.33209
Spine1  16.2365 5.64903 -6.57285
HEad  -34.2988 50.6532 -37.2551
LeftShoulder1  1.94321 -2.84101 -24.417
LeftArm  16.0198 7.12895 -44.1536
LeftForeArm  7.04092 -29.3748 -5.99747
LeftHand  -0.596584 2.3389 22.5259
RightShoulder  2.61871 4.67294 26.0019
RightArm  1.45734 12.1635 39.9944
RightForeArm  124.103 72.8724 141.377
RightHand  0.617212 -10.3744 -14.9566
LeftUpLeg  -12.8413 6.05689 15.8302
LeftLeg  39.5972 1.7285 1.92575
LeftFoot  -14.0228 -0.281414 -15.5157
LeftToes  -6.27559e-011 -2.10356e-011 8.24929e-012
373
root  -2.06254 37.4562 32.689 173.253 76.2512 178.442
RightUpLeg  0.755814 -18.7122 -20.6633
RightLeg  34.4446 10.0441 7.10076
RightFoot  -16.9873 0.667601 16.0067
RightToes  -1.74623e-010 0 -2.59999e-017
Spine  5.01002 3.81142 6.14725
Spine1  17.0283 5.83559 -5.55697
HEad  -32.2575 51.9926 -36.9819
LeftShoulder1  1.89061 -2.84416 -23.5299
LeftArm  21.1995 8.63958 -46.451
LeftForeArm  2.91037 -25.0841 -5.22791
LeftHand  -0.585542 2.48002 23.1513
RightShoulder  2.85023 5.01156 27.5026
RightArm  2.34079 6.25688 43.6214
RightForeArm  126.057 72.8965 141.587
RightHand  1.03371 -11.4823 -19.9226
LeftUpLeg  -9.95055 7.94335 15.0037
LeftLeg  36.1333 0.607211 0.85915
LeftFoot  -9.84443 0.266647 -15.9435
LeftToes  -6.27559e-011 -2.10356e-011 8.24929e-012
374
root  -1.70233 38.9153 32.1823 168.549 76.103 173.799
RightUpLeg  4.24571 -16.857 -21.7281
RightLeg  26.5647 9.26552 4.80134
RightFoot  -7.06615 -0.792996 19.0367
RightToes  -1.74623e-010 0 -2.59999e-017
Spine  3.9214 3.77769 5.88851
Spine1  16.1266 5.98162 -6.19388
HEad  -27.1561 53.6732 -33.4981
LeftShoulder1  1.8349 -2.79179 -22.8584
LeftArm  25.155 12.2622 -46.5084
LeftForeArm  1.44203 -23.0893 -4.91123
LeftHand  -0.558206 1.73236 17.6371
RightShoulder  3.04885 5.22752 28.9916
RightArm  4.57411 -4.32087 46.5495
RightForeArm  129.074 69.4326 148.725
RightHand  0.817112 -10.4082 -19.2277
LeftUpLeg  -6.34084 10.0882 13.7746
LeftLeg  29.7081 -2.20052 -0.973908
LeftFoot  -0.485412 1.56202 -16.2342
LeftToes  -6.27559e-011 -2.10356e-011 8.24929e-012
375
root  -1.43336 40.1288 31.6064 168.007 75.8686 172.911
RightUpLeg  5.6827 -15.7649 -21.5847
RightLeg  21.0448 5.70651 2.22607
RightFoot  3.51306 -2.40451 18.5707
RightToes  -1.74623e-010 0 -2.59999e-017
Spine  2.97849 3.23708 6.05081
Spine1  14.244 5.46145 -6.49764
HEad  -23.387 55.3768 -30.2342
LeftShoulder1  1.81985 -2.67027 -23.2073
LeftArm  22.1109 17.6 -44.2147
LeftForeArm  4.53344 -24.4997 -5.01816
LeftHand  -0.451179 1.20343 12.4544
RightShoulder  3.144 5.36543 29.5349
RightArm  8.63884 -13.1804 47.2328
RightForeArm  132.96 66.0953 153.766
RightHand  0.301213 -8.24751 -13.2888
LeftUpLeg  -3.97208 11.1587 13.4286
LeftLeg  24.3442 -6.12052 -2.67009
LeftFoot  7.50425 2.68275 -16.3532
LeftToes  -6.27559e-011 -2.10356e-011 8.24929e-012
376
root  -1.30728 40.6531 31.1473 167.831 75.5055 172.539
RightUpLeg  5.71739 -14.7726 -21.0417
RightLeg  19.7698 1.74711 0.485591
RightFoot  6.95677 -2.1383 13.5188
RightToes  -1.74623e-010 0 -2.59999e-017
Spine  2.0503 2.94755 5.25665
Spine1  13.9555 4.97684 -6.08764
HEad  -23.0174 55.4536 -28.8734
LeftShoulder1  1.71876 -2.52355 -22.1891
LeftArm  18.9632 20.9137 -43.2447
LeftForeArm  3.7672 -26.59 -5.51736
LeftHand  -0.368693 1.61871 11.2529
RightShoulder  3.04675 5.33418 28.5339
RightArm  11.4054 -18.2745 46.9985
RightForeArm  141.236 63.2857 157.518
RightHand  -0.0456958 -4.92524 -6.01552
LeftUpLeg  -3.10833 10.6433 13.11
LeftLeg  21.8521 -6.18671 -2.39536
LeftFoot  8.75055 2.38164 -13.6936
LeftToes  -6.27559e-011 -2.10356e-011 8.24929e-012
